# Blender v2.83.0 OBJ File: ''
# www.blender.org
mtllib Cube.mtl
o Cube.001
v 1.000000 -1.000000 -1.000000
v -1.000000 -1.000000 -1.000000
v -1.000000 1.000000 -1.000000
v 1.000000 1.000000 -1.000000
v 1.000000 1.000000 1.000000
v -1.000000 1.000000 1.000000
v -1.000000 -1.000000 1.000000
v 1.000000 -1.000000 1.000000
vt 0.641100 0.516100
vt 0.858900 0.516100
vt 0.858900 0.733900
vt 0.641100 0.733900
vt 0.391122 0.766122
vt 0.608878 0.766122
vt 0.608878 0.983878
vt 0.391122 0.983878
vt 0.400221 0.025221
vt 0.599779 0.025221
vt 0.599779 0.224779
vt 0.400221 0.224779
vt 0.144173 0.519173
vt 0.355826 0.519173
vt 0.355826 0.730827
vt 0.144173 0.730827
vt 0.396667 0.521667
vt 0.603333 0.521667
vt 0.603333 0.728333
vt 0.396667 0.728333
vt 0.392340 0.267340
vt 0.607660 0.267340
vt 0.607660 0.482660
vt 0.392340 0.482660
vn 0.0000 0.0000 -1.0000
vn 0.0000 1.0000 0.0000
vn -1.0000 0.0000 0.0000
vn 0.0000 0.0000 1.0000
vn 1.0000 0.0000 0.0000
vn 0.0000 -1.0000 0.0000
usemtl Material.001
s 1
f 1/1/1 2/2/1 3/3/1 4/4/1
f 5/5/2 4/6/2 3/7/2 6/8/2
f 6/9/3 3/10/3 2/11/3 7/12/3
f 7/13/4 8/14/4 5/15/4 6/16/4
f 8/17/5 1/18/5 4/19/5 5/20/5
f 7/21/6 2/22/6 1/23/6 8/24/6
